<?xml version="1.0" standalone="no"?>
<!DOCTYPE svg PUBLIC "-//W3C//DTD SVG 1.1//EN" "http://www.w3.org/Graphics/SVG/1.1/DTD/svg11.dtd" >
<svg xmlns="http://www.w3.org/2000/svg" xmlns:xlink="http://www.w3.org/1999/xlink" version="1.1">
<metadata>
Created by FontForge 20161003 at Thu Dec 21 16:19:33 2017
 By www-data
Copyright 1990-1998 as an unpublished work by Bitstream Inc.  All rights reserved.  Confidential.
</metadata>
<defs>
<font id="Square721BT-BoldExtended" horiz-adv-x="500" >
  <font-face 
    font-family="Square 721"
    font-weight="700"
    font-stretch="normal"
    units-per-em="1000"
    panose-1="2 0 8 3 0 0 0 0 0 0"
    ascent="800"
    descent="-200"
    x-height="514"
    cap-height="727"
    bbox="-167 -236 1767 963"
    underline-thickness="122"
    underline-position="-231"
    unicode-range="U+0020-FFFD"
  />
<missing-glyph horiz-adv-x="488" 
 />
    <glyph glyph-name=".notdef" unicode="&#xfffd;" horiz-adv-x="488" 
 />
    <glyph glyph-name=".null" horiz-adv-x="0" 
 />
    <glyph glyph-name="nonmarkingreturn" horiz-adv-x="333" 
 />
    <glyph glyph-name="space" unicode=" " horiz-adv-x="488" 
 />
    <glyph glyph-name="exclam" unicode="!" horiz-adv-x="488" 
d="M347 0h-206v206h206v-206zM337 295h-189l-7 250v182h206v-182z" />
    <glyph glyph-name="quotedbl" unicode="&#x22;" horiz-adv-x="348" 
d="M37 702h107v-274h-107v274zM203 702h109v-274h-109v274z" />
    <glyph glyph-name="numbersign" unicode="#" horiz-adv-x="769" 
d="M334 716h122l-68 -193h115l69 193h122l-68 -193h132l-42 -112h-131l-39 -112h135l-41 -113h-134l-69 -192h-122l68 192h-115l-69 -192h-122l68 192h-134l42 113h132l40 112h-138l42 112h136zM345 411l-40 -113h120l40 113h-120z" />
    <glyph glyph-name="dollar" unicode="$" horiz-adv-x="977" 
d="M433 574h-92q-50 0 -71.5 -11.5t-21.5 -44.5q0 -48 64 -54l121 -11v121zM538 159h106q73 0 73 63q0 33 -21.5 45t-74.5 17l-83 8v-133zM57 244h195q-1 -8 -1 -22q0 -39 18 -51t67 -12h97v142l-161 15q-119 11 -163.5 50.5t-44.5 146.5q0 122 58.5 167t199.5 45h111v82
h105v-82h123q229 0 229 -201h-192v4q0 28 -19.5 37.5t-66.5 9.5h-74v-131l159 -14q109 -10 160 -60t51 -147q0 -103 -43 -153q-38 -44 -92 -57t-151 -13h-84v-102h-105v102h-86q-101 0 -158.5 12.5t-88.5 48.5q-43 49 -43 173v10z" />
    <glyph glyph-name="percent" unicode="%" horiz-adv-x="1287" 
d="M1084 438q73 0 105.5 -38t32.5 -122v-131q0 -80 -33.5 -118t-106.5 -38h-193q-77 0 -111 35t-34 121v131q0 83 32.5 121.5t107.5 38.5h200zM1019 329h-74q-44 0 -60 -19t-16 -66v-63q0 -48 17 -64t59 -16h74q43 0 60.5 17t17.5 63v63q0 49 -17.5 67t-60.5 18zM570 -9h-94
l243 745h93zM405 736q73 0 105.5 -38t32.5 -122v-132q0 -80 -33.5 -118t-106.5 -38h-193q-77 0 -111 35t-34 121v132q0 83 32.5 121.5t107.5 38.5h200zM340 627h-74q-44 0 -60 -19t-16 -66v-63q0 -48 17 -64.5t59 -16.5h74q43 0 60.5 17.5t17.5 63.5v63q0 49 -17.5 67
t-60.5 18z" />
    <glyph glyph-name="ampersand" unicode="&#x26;" horiz-adv-x="1042" 
d="M699 149l-335 178q-16 9 -33 9q-29 0 -45.5 -18t-16.5 -49v-48q0 -43 24.5 -57.5t88.5 -14.5h317zM874 64q-37 -46 -90.5 -59t-149.5 -13h-252q-168 0 -240 41.5t-72 147.5v94q0 135 150 142q-37 22 -51.5 45t-14.5 60v81q0 38 10 62.5t25.5 39t48.5 21.5t64.5 9t87.5 2
h209q154 0 215 -29.5t61 -125.5v-90h-186q0 4 0.5 10t0.5 9q0 42 -20 57.5t-71 15.5h-187q-58 0 -58 -43q0 -28 28 -44l371 -194q8 30 8 56q0 15 -3 35h183v-119q0 -24 -12 -65l133 -74l-63 -139z" />
    <glyph glyph-name="quotesingle" unicode="'" horiz-adv-x="181" 
d="M37 702h107v-274h-107v274z" />
    <glyph glyph-name="parenleft" unicode="(" horiz-adv-x="478" 
d="M422 736v-180q-27 3 -47 3q-44 0 -61 -17.5t-17 -60.5v-245q0 -40 17 -54.5t62 -14.5q18 0 46 3v-180h-102q-118 0 -173.5 54t-55.5 168v326q0 101 53.5 149.5t165.5 48.5h112z" />
    <glyph glyph-name="parenright" unicode=")" horiz-adv-x="478" 
d="M64 736h111q112 0 165.5 -48.5t53.5 -149.5v-326q0 -114 -55 -168t-173 -54h-102v180q29 -3 45 -3q45 0 62 14.5t17 54.5v245q0 43 -17 60.5t-60 17.5q-20 0 -47 -3v180z" />
    <glyph glyph-name="asterisk" unicode="*" horiz-adv-x="729" 
d="M594 565v-112l-145 9v94zM134 453v112l146 -9v-94zM201 681l97 55l64 -130l-80 -47zM527 681l-80 -122l-81 47l65 130zM527 338l-96 -55l-65 130l81 47zM201 338l81 122l80 -47l-64 -130z" />
    <glyph glyph-name="plus" unicode="+" horiz-adv-x="833" 
d="M359 596h116v-241h234v-113h-234v-242h-116v242h-235v113h235v241z" />
    <glyph glyph-name="comma" unicode="," horiz-adv-x="488" 
d="M193 0h-54v205h211v-229q0 -83 -41.5 -119.5t-136.5 -36.5q-30 0 -65 3v117h16q38 0 54 11.5t16 40.5v8z" />
    <glyph glyph-name="hyphen" unicode="-" horiz-adv-x="493" 
d="M407 354v-186h-329v186h329z" />
    <glyph glyph-name="period" unicode="." horiz-adv-x="488" 
d="M347 0h-206v206h206v-206z" />
    <glyph glyph-name="slash" unicode="/" horiz-adv-x="364" 
d="M415 736l-386 -829h-111l386 829h111z" />
    <glyph glyph-name="zero" unicode="0" horiz-adv-x="977" 
d="M541 566h-105q-86 0 -115.5 -29.5t-29.5 -122.5v-107q0 -88 30.5 -117t114.5 -29h105q86 0 115.5 29.5t29.5 118.5v110q0 90 -29.5 118.5t-115.5 28.5zM600 736q95 0 148.5 -10t88.5 -41q66 -59 66 -220v-203q0 -161 -66 -220q-35 -31 -89 -41t-148 -10h-223
q-94 0 -147 9.5t-90 41.5q-67 57 -67 216v198q0 88 15 142.5t51 86.5q35 31 89.5 41t147.5 10h224z" />
    <glyph glyph-name="one" unicode="1" horiz-adv-x="977" 
d="M704 0h-213v547l-246 -169l-105 152l318 197h246v-727z" />
    <glyph glyph-name="two" unicode="2" horiz-adv-x="977" 
d="M913 0h-841v256q0 59 47.5 99.5t129.5 47.5l342 28q56 5 80.5 16t24.5 38v37q0 48 -99 48h-190q-69 0 -98 -21t-29 -76v-12h-207q-2 36 -2 51q0 130 64 177t226 47h295q130 0 190 -41.5t60 -132.5v-120q0 -69 -45.5 -113t-128.5 -51l-389 -33q-34 -3 -49.5 -21.5
t-15.5 -54.5v-4h635v-165z" />
    <glyph glyph-name="three" unicode="3" horiz-adv-x="977" 
d="M63 263h205q-1 -9 -1 -25q0 -49 21 -64.5t81 -15.5h262q36 0 52.5 13.5t16.5 43.5q0 36 -20 51t-65 15h-218v166h226q58 0 58 58q0 36 -20.5 50t-69.5 14h-234q-47 0 -64.5 -16.5t-17.5 -62.5v-9h-205q-2 32 -2 47q0 113 64 160.5t208 47.5h301q137 0 193.5 -34
t56.5 -119v-85q0 -64 -23.5 -92t-90.5 -40q73 -11 103 -37.5t30 -82.5v-91q0 -84 -59 -124t-182 -40h-310q-90 0 -143.5 8t-87.5 32q-67 46 -67 183q0 15 2 49z" />
    <glyph glyph-name="four" unicode="4" horiz-adv-x="977" 
d="M604 314v237l-377 -237h377zM809 0h-205v147h-555v264l507 316h253v-413h112v-167h-112v-147z" />
    <glyph glyph-name="five" unicode="5" horiz-adv-x="977" 
d="M77 225h203v-8q0 -35 26.5 -48t90.5 -13h220q49 0 70 15.5t21 53.5v44q0 31 -26 44t-82 13h-241q-58 0 -69 -37h-188v438h785v-165h-595v-117q26 27 67.5 36.5t109.5 9.5h200q128 0 189 -42.5t61 -135.5v-122q0 -109 -67.5 -154.5t-217.5 -45.5h-257q-165 0 -233 41.5
t-68 155.5q0 24 1 37z" />
    <glyph glyph-name="six" unicode="6" horiz-adv-x="977" 
d="M385 157h209q51 0 74.5 17t23.5 55t-23 53t-75 15h-209q-51 0 -74.5 -16.5t-23.5 -54.5q0 -39 22.5 -54t75.5 -15zM78 220v285q0 135 78 183t279 48h196q134 0 196.5 -43t62.5 -137q0 -27 -2 -41h-194q-4 34 -27.5 48t-72.5 14h-193q-60 0 -86 -20t-26 -69v-81
q22 30 63.5 42.5t111.5 12.5h160q147 0 213 -35.5t66 -125.5v-145q0 -165 -221 -165h-327q-144 0 -210.5 54.5t-66.5 174.5z" />
    <glyph glyph-name="seven" unicode="7" horiz-adv-x="977" 
d="M442 0h-256l447 544h-551v183h819v-171z" />
    <glyph glyph-name="eight" unicode="8" horiz-adv-x="977" 
d="M601 580h-219q-51 0 -74.5 -15t-23.5 -50q0 -36 23 -50t75 -14h219q51 0 74.5 15.5t23.5 50.5q0 36 -23 49.5t-75 13.5zM603 298h-224q-52 0 -75 -16.5t-23 -55.5t22.5 -54t75.5 -15h224q51 0 75 17t24 55t-23 53.5t-76 15.5zM192 370q-63 9 -91.5 51.5t-28.5 124.5
q0 114 52 152t189 38h356q137 0 189 -38t52 -152q0 -83 -28 -125t-91 -51q69 -14 95.5 -54t26.5 -123q0 -124 -61 -163t-224 -39h-274q-88 0 -140 8t-85 32q-59 43 -59 162q0 83 26.5 123t95.5 54z" />
    <glyph glyph-name="nine" unicode="9" horiz-adv-x="977" 
d="M906 506v-285q0 -135 -81 -182.5t-288 -47.5h-201q-139 0 -203 43.5t-64 139.5q0 12 2 38h200q4 -33 28 -47.5t74 -14.5h209q61 0 86.5 19.5t25.5 68.5v81q-22 -30 -63.5 -42.5t-111.5 -12.5h-158q-147 0 -213 36t-66 126v144q0 166 221 166h325q144 0 211 -55t67 -175z
M598 570h-208q-51 0 -75 -17t-24 -55q0 -39 23 -54t76 -15h208q52 0 75 16.5t23 55.5t-22.5 54t-75.5 15z" />
    <glyph glyph-name="colon" unicode=":" horiz-adv-x="488" 
d="M350 0h-211v206h211v-206zM350 308h-211v206h211v-206z" />
    <glyph glyph-name="semicolon" unicode=";" horiz-adv-x="488" 
d="M193 0h-54v205h211v-229q0 -83 -41.5 -119.5t-136.5 -36.5q-30 0 -65 3v117h16q38 0 54 11.5t16 40.5v8zM350 308h-211v206h211v-206z" />
    <glyph glyph-name="less" unicode="&#x3c;" horiz-adv-x="833" 
d="M704 593v-124l-417 -171l417 -170v-124l-575 237v114z" />
    <glyph glyph-name="equal" unicode="=" horiz-adv-x="833" 
d="M124 464h585v-113h-585v113zM124 245h585v-112h-585v112z" />
    <glyph glyph-name="greater" unicode="&#x3e;" horiz-adv-x="833" 
d="M129 593l575 -238v-114l-575 -237v124l417 170l-417 171v124z" />
    <glyph glyph-name="question" unicode="?" horiz-adv-x="806" 
d="M466 0h-201v191h201v-191zM458 248h-186q-2 32 -2 46q0 65 22.5 99t72.5 44l151 28q32 6 46.5 20t14.5 40q0 37 -28.5 51t-95.5 14h-110q-66 0 -90 -21.5t-24 -83.5v-14h-183q-5 33 -5 71q0 109 68.5 151t232.5 42h160q139 0 199 -36t60 -121v-109q0 -59 -33.5 -97.5
t-92.5 -47.5l-123 -19q-31 -5 -42.5 -14.5t-11.5 -34.5v-8z" />
    <glyph glyph-name="at" unicode="@" horiz-adv-x="1000" 
d="M585 340q-9 76 -78 76q-50 0 -88.5 -59t-38.5 -140q0 -41 17 -63t48 -22q40 0 71.5 28.5t43.5 77.5zM567 128q-53 -77 -144 -77q-162 0 -162 168q0 119 69.5 198t170.5 79q75 0 112 -60l25 45h101l-75 -298q-2 -12 -2 -16q0 -29 31 -29q66 0 117 70t51 164q0 116 -87 190
t-229 74q-145 0 -246 -71q-76 -54 -117 -134t-41 -174q0 -148 99 -235.5t266 -87.5q164 0 291 91l47 -66q-152 -114 -338 -114q-190 0 -314 95q-152 118 -152 314q0 167 102 292q148 182 404 182q172 0 283 -87q132 -103 132 -268q0 -167 -125 -267q-70 -56 -161 -56
q-103 0 -108 78z" />
    <glyph glyph-name="A" unicode="A" horiz-adv-x="1072" 
d="M244 0h-242l397 727h283l390 -727h-244l-70 121h-443zM399 296h279l-141 257z" />
    <glyph glyph-name="B" unicode="B" horiz-adv-x="1051" 
d="M762 0h-689v727h655q242 0 242 -203q0 -113 -107 -154q69 -11 100.5 -53t31.5 -120q0 -104 -55.5 -150.5t-177.5 -46.5zM685 444q57 0 57 60q0 27 -15.5 43.5t-41.5 16.5h-390v-120h390zM705 165q61 0 61 67q0 29 -16.5 46.5t-44.5 17.5h-410v-131h410z" />
    <glyph glyph-name="C" unicode="C" horiz-adv-x="1050" 
d="M769 465v7q0 43 -28 62.5t-89 19.5h-178q-110 0 -144.5 -26t-34.5 -117v-101q0 -83 38.5 -110t140.5 -27h129q98 0 135 19t37 81v8h225q2 -38 2 -53q0 -135 -73 -188q-39 -29 -101.5 -39t-167.5 -10h-248q-99 0 -157 10t-102 44q-84 66 -84 213v198q0 160 76.5 220
t266.5 60h248q107 0 168 -9t98 -38q67 -51 67 -183q0 -27 -1 -41h-223z" />
    <glyph glyph-name="D" unicode="D" horiz-adv-x="1087" 
d="M713 727q164 0 241 -57.5t77 -186.5v-250q0 -121 -60.5 -177t-192.5 -56h-703v727h638zM645 548h-348v-371h376q70 0 103 28.5t33 90.5v128q0 64 -40 94t-124 30z" />
    <glyph glyph-name="E" unicode="E" horiz-adv-x="930" 
d="M867 550h-572v-110h539v-153h-539v-111h581v-176h-803v727h794v-177z" />
    <glyph glyph-name="F" unicode="F" horiz-adv-x="879" 
d="M867 550h-572v-130h539v-176h-539v-244h-222v727h794v-177z" />
    <glyph glyph-name="G" unicode="G" horiz-adv-x="1052" 
d="M762 465v2q0 56 -35.5 71.5t-131.5 15.5h-129q-110 0 -144 -26t-34 -117v-101q0 -83 38.5 -110t140.5 -27h128q91 0 129.5 16t38.5 61q0 6 -2 22h-261v147h492v-239q0 -107 -79.5 -148t-260.5 -41h-247q-100 0 -158.5 10t-101.5 44q-84 66 -84 213v198q0 160 76.5 220
t266.5 60h248q107 0 168.5 -9t98.5 -38q67 -51 67 -183q0 -27 -1 -41h-223z" />
    <glyph glyph-name="H" unicode="H" horiz-adv-x="1050" 
d="M297 0h-222v727h222v-267h455v267h223v-727h-223v284h-455v-284z" />
    <glyph glyph-name="I" unicode="I" horiz-adv-x="388" 
d="M305 0h-222v727h222v-727z" />
    <glyph glyph-name="J" unicode="J" horiz-adv-x="829" 
d="M754 205q0 -98 -58 -154q-35 -34 -90 -46.5t-143 -12.5h-155q-164 0 -225 48t-61 179v96h208q0 -5 -0.5 -13.5t-0.5 -12.5q0 -67 22.5 -91.5t86.5 -24.5h100q57 0 75.5 22.5t18.5 80.5v451h222v-522z" />
    <glyph glyph-name="K" unicode="K" horiz-adv-x="1026" 
d="M300 457h93l291 270h295l-393 -359l445 -368h-309l-329 275h-93v-275h-222v727h222v-270z" />
    <glyph glyph-name="L" unicode="L" horiz-adv-x="808" 
d="M311 176h484v-176h-706v727h222v-551z" />
    <glyph glyph-name="M" unicode="M" horiz-adv-x="1324" 
d="M291 0h-216v727h328l259 -454l264 454h323v-727h-215v518l-300 -518h-145l-298 518v-518z" />
    <glyph glyph-name="N" unicode="N" horiz-adv-x="1128" 
d="M1058 0h-325l-436 529v-529h-222v727h329l433 -533v533h221v-727z" />
    <glyph glyph-name="O" unicode="O" horiz-adv-x="1100" 
d="M480 173h141q111 0 153 27t42 112v103q0 85 -42 112t-153 27h-142q-113 0 -154 -27t-41 -116v-101q0 -83 42.5 -110t153.5 -27zM420 -9q-112 0 -176 9.5t-107 41.5t-61 83.5t-18 132.5v198q0 87 17.5 141.5t61.5 87.5q41 31 106 41t176 10h261q111 0 176.5 -10t106.5 -41
q78 -60 78 -220v-203q0 -160 -78 -220q-42 -31 -106.5 -41t-176.5 -10h-260z" />
    <glyph glyph-name="P" unicode="P" horiz-adv-x="975" 
d="M634 727q136 0 193 -30t81 -88t24 -155q0 -148 -49 -210.5t-169 -62.5h-415v-181h-223v727h558zM626 546h-327v-184h327q46 0 63 22.5t17 76.5q0 44 -19 64.5t-61 20.5z" />
    <glyph glyph-name="Q" unicode="Q" horiz-adv-x="1100" 
d="M62 256v198q0 87 17.5 141t61.5 87q41 31 106.5 41t175.5 10h261q111 0 176.5 -10t106.5 -41q42 -31 60 -84t18 -135v-161q0 -70 -9 -103l86 -52l-76 -143l-79 50q-34 -40 -97 -51.5t-186 -11.5h-260q-111 0 -176 10t-107 41q-44 32 -61.5 82.5t-17.5 131.5zM773 185
q-14 4 -64 34l-165 98l79 125l143 -84q35 -21 65 -44q0 17 -0.5 39t-0.5 26v35q0 85 -42 111.5t-153 26.5h-152q-113 0 -154 -27.5t-41 -115.5v-101q0 -69 34.5 -102.5t107.5 -33.5h221q94 0 122 13z" />
    <glyph glyph-name="R" unicode="R" horiz-adv-x="1027" 
d="M662 727q168 0 233 -49.5t65 -188.5q0 -92 -27 -139t-94 -63q115 -27 115 -138v-149h-222v111q0 45 -21.5 60t-78.5 15h-331v-186h-223v727h584zM654 546h-353v-178h353q46 0 63 21.5t17 74.5q0 42 -19 62t-61 20z" />
    <glyph glyph-name="S" unicode="S" horiz-adv-x="1024" 
d="M65 242h219v-13q0 -43 22 -56.5t82 -13.5h279q40 0 58 13.5t18 46.5q0 37 -24 49t-83 14l-349 11q-128 4 -175.5 48.5t-47.5 168.5q0 119 51 170q37 35 93 45.5t157 10.5h339q125 0 181 -45.5t56 -149.5q0 -12 -2 -40h-214v3q0 72 -73 72h-256q-57 0 -81 -10.5t-24 -46.5
q0 -33 20 -45.5t67 -14.5l365 -9q125 -3 176 -56t51 -180q0 -72 -17.5 -115t-64.5 -73q-54 -35 -225 -35h-296q-174 0 -239.5 38.5t-65.5 154.5q0 13 3 58z" />
    <glyph glyph-name="T" unicode="T" horiz-adv-x="878" 
d="M550 0h-222v549h-304v178h830v-178h-304v-549z" />
    <glyph glyph-name="U" unicode="U" horiz-adv-x="1050" 
d="M73 727h222v-431q0 -78 36 -101t143 -23h126q89 0 123 24.5t34 99.5v431h222v-500q0 -132 -71.5 -184t-236.5 -52h-248q-196 0 -273 50.5t-77 185.5v500z" />
    <glyph glyph-name="V" unicode="V" horiz-adv-x="1047" 
d="M525 205l290 522h236l-388 -727h-269l-384 727h242z" />
    <glyph glyph-name="W" unicode="W" horiz-adv-x="1309" 
d="M495 0h-254l-232 727h221l150 -517l186 517h204l176 -517l160 517h221l-243 -727h-250l-168 501z" />
    <glyph glyph-name="X" unicode="X" horiz-adv-x="1060" 
d="M4 0l358 369l-331 358h277l226 -255l228 255h268l-321 -358l349 -369h-286l-238 255l-241 -255h-289z" />
    <glyph glyph-name="Y" unicode="Y" horiz-adv-x="1027" 
d="M620 0h-222v261l-401 466h273l239 -289l250 289h263l-402 -466v-261z" />
    <glyph glyph-name="Z" unicode="Z" horiz-adv-x="928" 
d="M893 0h-855v178l518 373h-499v176h824v-176l-515 -373h527v-178z" />
    <glyph glyph-name="bracketleft" unicode="[" horiz-adv-x="468" 
d="M410 726v-170h-117v-385h117v-171h-318v726h318z" />
    <glyph glyph-name="backslash" unicode="\" horiz-adv-x="364" 
d="M-52 736h111l386 -829h-111z" />
    <glyph glyph-name="bracketright" unicode="]" horiz-adv-x="468" 
d="M79 726h318v-726h-318v171h117v385h-117v170z" />
    <glyph glyph-name="asciicircum" unicode="^" horiz-adv-x="1000" 
d="M429 714h141l227 -275h-129l-168 167l-169 -167h-129z" />
    <glyph glyph-name="underscore" unicode="_" 
d="M0 -119h500v-117h-500v117z" />
    <glyph glyph-name="grave" unicode="`" 
d="M356 574h-94l-231 139h194z" />
    <glyph glyph-name="a" unicode="a" horiz-adv-x="756" 
d="M705 0h-185v62q-55 -69 -240 -69q-139 0 -193 36.5t-54 135.5t57.5 134t202.5 35q165 0 227 -44v55q0 56 -72 56h-151q-54 0 -54 -39h-186v6q0 83 62 118t199 35h181q105 0 155.5 -41.5t50.5 -128.5v-351zM426 222h-113q-49 0 -70.5 -11.5t-21.5 -41.5q0 -29 20.5 -39
t71.5 -10h113q49 0 70.5 11.5t21.5 41.5q0 29 -20.5 39t-71.5 10z" />
    <glyph glyph-name="b" unicode="b" horiz-adv-x="810" 
d="M257 419q16 55 69.5 75t162.5 20q146 0 207 -41t61 -140v-170q0 -95 -62 -133.5t-209 -38.5q-116 0 -169.5 22t-59.5 79v-92h-185v727h185v-308zM371 133h84q63 0 90 19t27 68v64q0 48 -27.5 68t-89.5 20h-84q-66 0 -91.5 -19.5t-25.5 -71.5v-62q0 -47 27 -66.5t90 -19.5
z" />
    <glyph glyph-name="c" unicode="c" horiz-adv-x="780" 
d="M299 -7q-130 0 -188 43.5t-58 145.5v140q0 110 54 154.5t192 44.5h175q127 0 187 -42t60 -134q0 -19 -3 -42h-175v3q0 41 -24 58.5t-78 17.5h-91q-63 0 -87 -20t-24 -74v-66q0 -49 25.5 -69.5t85.5 -20.5h81q65 0 89 16t24 68h184q1 -11 1 -32q0 -105 -58.5 -148
t-193.5 -43h-178z" />
    <glyph glyph-name="d" unicode="d" horiz-adv-x="810" 
d="M553 419v308h185v-727h-185v92q-6 -57 -59.5 -79t-169.5 -22q-147 0 -209 38.5t-62 133.5v170q0 99 61 140t207 41q109 0 162.5 -20t69.5 -75zM439 133q63 0 90 19.5t27 66.5v62q0 52 -25.5 71.5t-91.5 19.5h-84q-62 0 -89.5 -20t-27.5 -68v-64q0 -49 27 -68t90 -19h84z
" />
    <glyph glyph-name="e" unicode="e" horiz-adv-x="756" 
d="M238 325h285v2q0 37 -24 52t-80 15h-76q-56 0 -80.5 -15t-24.5 -52v-2zM527 171h174v-8q0 -92 -56 -131t-181 -39h-172q-117 0 -178 49t-61 140v140q0 96 61.5 147.5t176.5 51.5h173q116 0 177 -51t61 -148v-110h-464q0 -3 -0.5 -7.5t-0.5 -6.5q0 -45 26 -64t84 -19h78
q53 0 74 9.5t28 46.5z" />
    <glyph glyph-name="f" unicode="f" horiz-adv-x="463" 
d="M293 0h-186v374h-90v140h90v17q0 110 51.5 153t176.5 43h118v-128q-36 2 -49 2q-60 0 -86 -16t-26 -54q0 -11 1 -17h170v-140h-170v-374z" />
    <glyph glyph-name="g" unicode="g" horiz-adv-x="807" 
d="M554 87q-17 -28 -63 -39t-131 -11q-165 0 -231.5 34t-66.5 133v141q0 94 62.5 135t200.5 41q190 0 229 -85v78h185v-512q0 -84 -65 -130t-185 -46h-171q-146 0 -201.5 29t-55.5 123v8h185q2 -24 24 -32t73 -8h105q57 0 82.5 25.5t25.5 83.5q0 8 -2 32zM358 170h82
q61 0 87.5 17.5t26.5 63.5v59q0 44 -26.5 62.5t-87.5 18.5h-82q-65 0 -89.5 -18t-24.5 -66v-57q0 -44 26 -62t88 -18z" />
    <glyph glyph-name="h" unicode="h" horiz-adv-x="807" 
d="M257 0h-185v727h185v-295q34 52 86.5 69.5t144.5 17.5q251 0 251 -187v-332h-185v259q0 65 -28.5 88t-119.5 23q-78 0 -113.5 -27.5t-35.5 -89.5v-253z" />
    <glyph glyph-name="i" unicode="i" horiz-adv-x="340" 
d="M263 0h-185v514h185v-514zM263 576h-185v151h185v-151z" />
    <glyph glyph-name="j" unicode="j" horiz-adv-x="342" 
d="M269 -29q0 -83 -39 -114t-141 -31q-31 0 -76 5v130q1 0 11 -1.5t15 -1.5q45 0 45 56v500h185v-543zM269 576h-185v151h185v-151z" />
    <glyph glyph-name="k" unicode="k" horiz-adv-x="745" 
d="M262 348h44l160 166h243l-246 -240l280 -274h-234l-203 205h-44v-205h-186v727h186v-379z" />
    <glyph glyph-name="l" unicode="l" horiz-adv-x="340" 
d="M263 0h-185v727h185v-727z" />
    <glyph glyph-name="m" unicode="m" horiz-adv-x="1217" 
d="M257 0h-185v511h185v-79q30 50 76.5 68.5t125.5 18.5q97 0 152 -28t73 -89q27 62 77.5 89.5t134.5 27.5q129 0 191.5 -46t62.5 -141v-332h-185v259q0 64 -24.5 87.5t-104.5 23.5q-69 0 -99 -27.5t-30 -89.5v-253h-185v259q0 64 -25 87.5t-107 23.5q-70 0 -101.5 -27.5
t-31.5 -89.5v-253z" />
    <glyph glyph-name="n" unicode="n" horiz-adv-x="806" 
d="M257 0h-185v511h185v-79q34 52 86.5 69.5t144.5 17.5q251 0 251 -187v-332h-185v259q0 65 -28.5 88t-119.5 23q-81 0 -115 -28t-34 -94v-248z" />
    <glyph glyph-name="o" unicode="o" horiz-adv-x="804" 
d="M310 -7q-135 0 -196 43t-61 146v140q0 109 57 154t199 45h186q136 0 196 -45t60 -148v-143q0 -106 -59.5 -149t-196.5 -43h-185zM359 132h87q64 0 92 20t28 71v68q0 50 -28 70.5t-92 20.5h-87q-68 0 -94.5 -20t-26.5 -74v-66q0 -50 28 -70t93 -20z" />
    <glyph glyph-name="p" unicode="p" horiz-adv-x="810" 
d="M371 379q-63 0 -90 -19.5t-27 -66.5v-62q0 -51 25.5 -70.5t91.5 -19.5h84q62 0 89.5 20t27.5 67v64q0 49 -27 68t-90 19h-84zM257 93v-267h-185v688h185v-94q6 57 59.5 79t169.5 22q147 0 209 -38.5t62 -133.5v-170q0 -94 -64 -136t-204 -42q-111 0 -163.5 19t-68.5 73z
" />
    <glyph glyph-name="q" unicode="q" horiz-adv-x="810" 
d="M439 379h-84q-63 0 -90 -19t-27 -68v-64q0 -47 27.5 -67t89.5 -20h84q66 0 91.5 19.5t25.5 70.5v62q0 47 -27 66.5t-90 19.5zM553 93q-16 -54 -68.5 -73t-163.5 -19q-140 0 -204 42t-64 136v170q0 95 62 133.5t209 38.5q116 0 169.5 -22t59.5 -79v94h185v-688h-185v267z
" />
    <glyph glyph-name="r" unicode="r" horiz-adv-x="656" 
d="M263 418q28 56 72 80t116 24q107 0 152 -45t45 -153q0 -15 -2 -51h-163v8q0 88 -103 88q-55 0 -86 -25.5t-31 -69.5v-274h-185v514h185v-96z" />
    <glyph glyph-name="s" unicode="s" horiz-adv-x="778" 
d="M45 163h196v-2q0 -46 101 -46h135q40 0 57 9t17 31q0 39 -76 40l-183 3q-131 2 -188 35t-57 122q0 91 59 128.5t192 37.5h210q101 0 149 -37t49 -115h-185q-13 30 -92 30h-129q-35 0 -51 -7t-16 -26q0 -20 19 -26.5t68 -7.5l226 -3q99 -2 145 -40.5t46 -122.5
q0 -98 -53.5 -135.5t-177.5 -37.5h-188q-150 0 -211 34t-62 136z" />
    <glyph glyph-name="t" unicode="t" horiz-adv-x="657" 
d="M125 380h-104v134h104v123h185v-123h289v-134h-289v-175q0 -40 16 -56.5t56 -16.5q44 0 62 16.5t18 57.5q0 8 -2 30h164q2 -16 2 -45q0 -106 -61.5 -152t-199.5 -46q-132 0 -186 39.5t-54 138.5v209z" />
    <glyph glyph-name="u" unicode="u" horiz-adv-x="806" 
d="M549 514h185v-514h-185v79q-34 -52 -86 -69t-145 -17q-129 0 -190.5 46.5t-61.5 145.5v329h185v-262q0 -62 27 -86t113 -24q88 0 123 26t35 95v251z" />
    <glyph glyph-name="v" unicode="v" horiz-adv-x="732" 
d="M486 0h-233l-247 514h208l154 -360l160 360h205z" />
    <glyph glyph-name="w" unicode="w" horiz-adv-x="1096" 
d="M203 0l-195 514h204l121 -364l134 364h166l129 -364l130 364h197l-200 -514h-240l-101 285l-107 -285h-238z" />
    <glyph glyph-name="x" unicode="x" horiz-adv-x="731" 
d="M245 0h-234l208 270l-201 244h245l99 -134l98 134h238l-190 -238l224 -276h-241l-126 170z" />
    <glyph glyph-name="y" unicode="y" horiz-adv-x="709" 
d="M305 25h-69l-225 489h204l143 -334l148 334h202l-257 -554q-38 -83 -85 -111q-41 -23 -120 -23q-43 0 -84 4v122q22 -3 40 -3q86 0 103 76z" />
    <glyph glyph-name="z" unicode="z" horiz-adv-x="633" 
d="M608 0h-581v130l311 243h-293v141h553v-142l-294 -232h304v-140z" />
    <glyph glyph-name="braceleft" unicode="{" 
d="M436 721v-118q-4 0 -10.5 0.5t-9.5 0.5q-50 0 -65.5 -18.5t-15.5 -70.5v-117q0 -66 -21 -96.5t-82 -42.5q61 -12 82 -42t21 -96v-118q0 -52 15.5 -70t64.5 -18q3 0 10 0.5t11 0.5v-118q-7 0 -20.5 -0.5t-19.5 -0.5q-101 0 -146 24q-33 17 -42.5 47.5t-9.5 89.5v125
q0 65 -24 91.5t-82 26.5q-2 0 -8.5 -0.5t-9.5 -0.5v118q3 0 9 -0.5t9 -0.5q58 0 82 27.5t24 91.5v124q0 59 9.5 90t42.5 48q45 24 147 24q6 0 19 -0.5t20 -0.5z" />
    <glyph glyph-name="bar" unicode="|" 
d="M192 764h117v-1000h-117v1000z" />
    <glyph glyph-name="braceright" unicode="}" 
d="M65 721q7 0 20 0.5t19 0.5q100 0 147 -24q33 -17 42.5 -48t9.5 -90v-124q0 -65 24 -92t82 -27q3 0 9 0.5t9 0.5v-118q-3 0 -9 0.5t-9 0.5q-58 0 -82 -27t-24 -91v-125q0 -59 -9.5 -90t-42.5 -48q-42 -23 -142 -23q-7 0 -21.5 0.5t-22.5 0.5v118q4 0 11 -0.5t10 -0.5
q50 0 65 18t15 70v118q0 65 21 95.5t82 42.5q-61 12 -82 42.5t-21 96.5v117q0 52 -15 70.5t-63 18.5q-3 0 -11 -0.5t-12 -0.5v118z" />
    <glyph glyph-name="asciitilde" unicode="~" horiz-adv-x="833" 
d="M747 400v-124q-97 -67 -184 -67q-45 0 -84 14q-5 2 -23.5 8.5t-24 8t-22 7t-23.5 7.5t-21.5 6t-23.5 5.5t-21.5 4t-23.5 3t-22 0.5q-79 0 -187 -77v124q108 70 189 70q58 0 144 -28q8 -3 27.5 -10t30.5 -10l27.5 -7.5t31 -6.5t29.5 -2q79 0 181 74z" />
    <glyph glyph-name="exclamdown" unicode="&#xa1;" horiz-adv-x="488" 
d="M141 727h206v-206h-206v206zM152 431h189l6 -250v-181h-206v181z" />
    <glyph glyph-name="cent" unicode="&#xa2;" horiz-adv-x="977" 
d="M595 375l-67 -245h19q65 0 88.5 16t23.5 67h185q1 -11 1 -31q0 -105 -58.5 -148t-193.5 -43h-105l-34 -129h-113l36 130q-122 15 -165 62.5t-43 160.5v87q0 114 57 165t189 51h111l30 105h109l-31 -108q105 -5 154 -46.5t49 -125.5q0 -19 -3 -42h-175q0 68 -64 74z
M487 379h-20q-64 0 -88 -20t-24 -74v-66q0 -78 63 -84z" />
    <glyph glyph-name="sterling" unicode="&#xa3;" horiz-adv-x="977" 
d="M931 0h-875v168q32 0 49.5 13t17.5 35v67h-80v137h80v104q0 103 66.5 157.5t192.5 54.5h266q139 0 205 -57t66 -178v-3h-199v6q0 36 -18 51t-61 15h-237q-38 0 -54 -13.5t-16 -47.5v-89h313v-137h-313q-1 -73 -47 -117h644v-166z" />
    <glyph glyph-name="currency" unicode="&#xa4;" horiz-adv-x="977" 
d="M901 216q0 -132 -67 -183q-36 -28 -93.5 -35t-172.5 -7h-123q-94 0 -147 9.5t-90 41.5q-67 57 -67 212h-109l23 71h86v77h-109l23 71h86q3 156 66 212q35 31 89.5 41t147.5 10h118q78 0 117 -1.5t81.5 -11.5t67.5 -29q67 -51 67 -183v-18h-216q0 43 -28 62.5t-89 19.5
h-58q-74 0 -105 -20.5t-38 -81.5h291l-23 -71h-270v-77h244l-23 -71h-219q7 -60 38 -81t105 -21h64q61 0 89 19.5t28 62.5v7h216v-25z" />
    <glyph glyph-name="yen" unicode="&#xa5;" horiz-adv-x="991" 
d="M599 0h-208v261l-17 19h-364v79h296l-73 86h-223v79h154l-175 203h242l266 -322l274 322h229l-175 -203h157v-79h-225l-75 -86h300v-79h-368l-15 -19v-261z" />
    <glyph glyph-name="brokenbar" unicode="&#xa6;" 
d="M192 699h117v-370h-117v370zM192 199h117v-370h-117v370z" />
    <glyph glyph-name="section" unicode="&#xa7;" horiz-adv-x="808" 
d="M572 302q28 21 28 45t-20 36.5t-66 21.5l-280 50q-22 -21 -22 -45q0 -27 18.5 -40.5t60.5 -20.5zM257 164v-10q0 -26 13 -37t42 -11h186q44 0 44 35q0 17 -12 25t-41 13l-239 40q-93 16 -132 45.5t-39 94.5q0 48 27 78.5t76 37.5q-71 44 -71 125q0 77 52.5 106.5
t167.5 29.5h188q87 0 124 -29t37 -99v-15h-149q-8 38 -56 38h-146q-33 0 -47 -7t-14 -25q0 -10 3.5 -15.5t16 -9.5t23 -6t36.5 -6l212 -31q87 -13 128.5 -47t41.5 -94q0 -100 -101 -112q78 -52 78 -135q0 -86 -52 -119t-169 -33h-215q-88 0 -126 31.5t-38 106.5q0 11 2 35
h149z" />
    <glyph glyph-name="dieresis" unicode="&#xa8;" 
d="M53 579v128h160v-128h-160zM287 579v128h160v-128h-160z" />
    <glyph glyph-name="copyright" unicode="&#xa9;" horiz-adv-x="833" 
d="M416 725q153 0 260 -107q105 -105 105 -258q0 -154 -104 -256q-111 -109 -261 -109q-149 0 -257 108q-107 107 -107 257q0 149 108 259q104 106 256 106zM417 659q-125 0 -210 -87q-89 -91 -89 -212t89 -210q88 -88 210 -88t213 89q85 83 85 209q0 125 -86 211
q-88 88 -212 88zM596 435h-104q-3 33 -23 51t-53 18q-40 0 -63 -37t-23 -106q0 -139 91 -139q32 0 51.5 19.5t22.5 56.5h105q-3 -70 -52.5 -112.5t-128.5 -42.5q-93 0 -147 57.5t-54 156.5q0 101 54.5 160.5t145.5 59.5q77 0 125.5 -39t52.5 -103z" />
    <glyph glyph-name="ordfeminine" unicode="&#xaa;" horiz-adv-x="567" 
d="M529 367h-139v43q-41 -48 -180 -48q-104 0 -144.5 25.5t-40.5 94.5q0 70 43 94.5t152 24.5q122 0 170 -31v38q0 40 -54 40h-113q-41 0 -41 -28h-139v5q0 58 46.5 82.5t149.5 24.5h135q155 0 155 -119v-246zM320 522h-85q-37 0 -53 -8t-16 -29q0 -20 15.5 -27t53.5 -7h85
q37 0 53 8t16 29t-15.5 27.5t-53.5 6.5z" />
    <glyph glyph-name="guillemotleft" unicode="&#xab;" horiz-adv-x="581" 
d="M306 416l-115 -157l115 -153h-152l-115 153l115 157h152zM541 416l-114 -157l114 -153h-152l-114 153l114 157h152z" />
    <glyph glyph-name="logicalnot" unicode="&#xac;" horiz-adv-x="833" 
d="M124 423h585v-245h-112v134h-473v111z" />
    <glyph glyph-name="registered" unicode="&#xae;" horiz-adv-x="833" 
d="M416 725q156 0 263 -110q102 -104 102 -255q0 -156 -108 -259q-111 -106 -257 -106q-151 0 -259 111q-105 108 -105 254q0 153 111 262q105 103 253 103zM417 659q-122 0 -208 -84q-90 -90 -90 -215q0 -120 85 -207q88 -91 212 -91q122 0 211 86q88 85 88 212
q0 123 -84 209q-88 90 -214 90zM262 568h161q173 0 173 -116q0 -39 -22.5 -67.5t-62.5 -40.5l89 -176h-121l-75 159h-32v-159h-110v400zM372 499v-107h39q72 0 72 52q0 55 -78 55h-33z" />
    <glyph glyph-name="macron" unicode="&#xaf;" 
d="M53 603v80h394v-80h-394z" />
    <glyph glyph-name="degree" unicode="&#xb0;" horiz-adv-x="329" 
d="M165 716q63 0 107.5 -44.5t44.5 -107.5q0 -62 -44.5 -107t-108.5 -45q-63 0 -107 44t-44 108t44.5 108t107.5 44zM165 645q-33 0 -57 -23.5t-24 -56.5q0 -34 23.5 -57.5t57.5 -23.5q33 0 56.5 24t23.5 57t-23 56.5t-57 23.5z" />
    <glyph glyph-name="plusminus" unicode="&#xb1;" horiz-adv-x="833" 
d="M359 606h116v-156h234v-113h-234v-156h-116v156h-235v113h235v156zM124 104h585v-113h-585v113z" />
    <glyph glyph-name="twosuperior" unicode="&#xb2;" horiz-adv-x="645" 
d="M603 291h-555v154q0 35 31 59.5t85 28.5l226 17q37 2 53 9t16 23v22q0 29 -65 29h-125q-46 0 -65 -12.5t-19 -45.5v-7h-137q0 5 -0.5 15.5t-0.5 14.5q0 78 42 106.5t149 28.5h195q86 0 125.5 -25t39.5 -80v-72q0 -41 -30 -67.5t-85 -30.5l-257 -20q-43 -3 -43 -46v-2h420
v-99z" />
    <glyph glyph-name="threesuperior" unicode="&#xb3;" horiz-adv-x="645" 
d="M42 449h135q-1 -6 -1 -15q0 -29 14.5 -38.5t53.5 -9.5h172q46 0 46 34q0 22 -13 31t-43 9h-144v99h149q38 0 38 35q0 21 -13.5 29.5t-45.5 8.5h-154q-31 0 -42.5 -9.5t-11.5 -37.5v-5h-136q0 4 -0.5 14t-0.5 14q0 68 42 96.5t137 28.5h199q90 0 127.5 -20.5t37.5 -71.5
v-51q0 -39 -15.5 -55.5t-59.5 -23.5q48 -7 68 -23t20 -49v-55q0 -98 -159 -98h-205q-115 0 -153 24q-44 27 -44 109q0 10 2 30z" />
    <glyph glyph-name="acute" unicode="&#xb4;" 
d="M144 574l131 139h194l-231 -139h-94z" />
    <glyph glyph-name="paragraph" unicode="&#xb6;" 
d="M487 722v-60h-52v-662h-85v662h-74v-662h-85v383q-81 3 -129 49.5t-48 119.5q0 76 51.5 123t138.5 47h283z" />
    <glyph glyph-name="periodcentered" unicode="&#xb7;" horiz-adv-x="488" 
d="M132 366q0 46 32.5 78.5t79.5 32.5q46 0 79 -32.5t33 -78.5q0 -47 -32.5 -80t-79.5 -33t-79.5 33t-32.5 80z" />
    <glyph glyph-name="cedilla" unicode="&#xb8;" 
d="M187 0h63v-53h82q32 0 45 -16.5t13 -56.5v-26q0 -40 -13 -56.5t-46 -16.5h-213v67h163q19 0 19 20t-21 20h-66q-16 0 -21 8.5t-5 28.5v81z" />
    <glyph glyph-name="onesuperior" unicode="&#xb9;" horiz-adv-x="645" 
d="M465 291h-141v328l-162 -101l-69 91l210 118h162v-436z" />
    <glyph glyph-name="ordmasculine" unicode="&#xba;" horiz-adv-x="603" 
d="M233 362q-102 0 -147.5 30t-45.5 102v98q0 76 43 108t149 32h139q102 0 147 -31.5t45 -103.5v-101q0 -74 -44.5 -104t-147.5 -30h-138zM269 459h66q48 0 69 14.5t21 49.5v48q0 35 -21 49t-69 14h-66q-51 0 -70.5 -14t-19.5 -51v-47q0 -35 21 -49t69 -14z" />
    <glyph glyph-name="guillemotright" unicode="&#xbb;" horiz-adv-x="581" 
d="M275 416h152l114 -157l-114 -153h-152l114 153zM39 416h152l115 -157l-115 -153h-152l115 153z" />
    <glyph glyph-name="onequarter" unicode="&#xbc;" horiz-adv-x="1398" 
d="M444 320h-134v306l-155 -94l-67 85l201 110h155v-407zM853 736h95l-405 -745h-95zM1163 176v133l-238 -133h238zM1292 0h-129v82h-350v148l319 177h160v-231h70v-94h-70v-82z" />
    <glyph glyph-name="onehalf" unicode="&#xbd;" horiz-adv-x="1398" 
d="M444 320h-134v306l-155 -94l-67 85l201 110h155v-407zM853 736h95l-405 -745h-95zM1357 0h-530v143q0 34 30 56.5t82 26.5l215 15q36 3 51 9.5t15 21.5v20q0 27 -62 27h-120q-43 0 -61.5 -11.5t-18.5 -42.5v-7h-130q-1 10 -1 29q0 73 40 99t142 26h186q82 0 120 -23
t38 -74v-67q0 -39 -29 -63.5t-81 -28.5l-245 -19q-41 -3 -41 -42v-3h400v-92z" />
    <glyph glyph-name="threequarters" unicode="&#xbe;" horiz-adv-x="1398" 
d="M40 467h129q-1 -5 -1 -14q0 -27 13.5 -36t50.5 -9h166q43 0 43 32q0 20 -12.5 28.5t-41.5 8.5h-137v93h142q37 0 37 33q0 20 -13 28t-44 8h-147q-30 0 -41 -9t-11 -36v-5h-129q-1 9 -1 27q0 63 40 89.5t131 26.5h190q86 0 121.5 -19t35.5 -67v-47q0 -36 -15 -51.5
t-56 -22.5q45 -6 64 -21t19 -46v-51q0 -92 -152 -92h-195q-109 0 -145 22q-43 26 -43 103q0 9 2 27zM854 736h95l-405 -745h-95zM1164 176v133l-238 -133h238zM1293 0h-129v82h-350v148l319 177h160v-231h70v-94h-70v-82z" />
    <glyph glyph-name="questiondown" unicode="&#xbf;" horiz-adv-x="806" 
d="M348 476h186q2 -32 2 -46q0 -64 -22.5 -98t-72.5 -44l-150 -28q-32 -6 -46.5 -20t-14.5 -40q0 -37 28 -51t95 -14h110q66 0 90 21.5t24 83.5v14h183q5 -33 5 -71q0 -110 -68.5 -152t-232.5 -42h-160q-138 0 -198.5 36t-60.5 122v109q0 59 33.5 97t92.5 47l123 19
q32 5 43 14.5t11 34.5v8zM340 725h201v-191h-201v191z" />
    <glyph glyph-name="Agrave" unicode="&#xc0;" horiz-adv-x="1072" 
d="M244 0h-242l397 727h283l390 -727h-244l-70 121h-443zM399 296h279l-141 257zM642 789h-94l-231 139h194z" />
    <glyph glyph-name="Aacute" unicode="&#xc1;" horiz-adv-x="1072" 
d="M244 0h-242l397 727h283l390 -727h-244l-70 121h-443zM399 296h279l-141 257zM430 789l131 139h194l-231 -139h-94z" />
    <glyph glyph-name="Acircumflex" unicode="&#xc2;" horiz-adv-x="1072" 
d="M244 0h-242l397 727h283l390 -727h-244l-70 121h-443zM399 296h279l-141 257zM327 789l131 139h156l131 -139h-94l-115 73l-115 -73h-94z" />
    <glyph glyph-name="Atilde" unicode="&#xc3;" horiz-adv-x="1072" 
d="M244 0h-242l397 727h283l390 -727h-244l-70 121h-443zM399 296h279l-141 257zM391 794h-67q32 114 135 114q19 0 46 -5l84 -16q17 -3 35 -3q45 0 57 37h67q-13 -56 -49.5 -86t-90.5 -30q-21 0 -40 4l-90 18q-9 2 -26 2q-49 0 -61 -35z" />
    <glyph glyph-name="Adieresis" unicode="&#xc4;" horiz-adv-x="1072" 
d="M244 0h-242l397 727h283l390 -727h-244l-70 121h-443zM399 296h279l-141 257zM339 794v128h160v-128h-160zM573 794v128h160v-128h-160z" />
    <glyph glyph-name="Aring" unicode="&#xc5;" horiz-adv-x="1072" 
d="M244 0h-242l397 723h283l390 -723h-244l-70 121h-443zM399 296h279l-141 269zM711 860q0 -50 -43.5 -76.5t-126.5 -26.5q-82 0 -126 27.5t-44 75.5q0 49 44 76t126 27q83 0 126.5 -26.5t43.5 -76.5zM609 860q0 54 -68 54t-68 -54t68 -54t68 54z" />
    <glyph glyph-name="AE" unicode="&#xc6;" horiz-adv-x="1317" 
d="M618 287v284h-36l-176 -284h212zM214 0h-246l471 727h808v-177h-423v-110h410v-153h-410v-111h423v-176h-629v141h-310z" />
    <glyph glyph-name="Ccedilla" unicode="&#xc7;" horiz-adv-x="1050" 
d="M769 465v7q0 43 -28 62.5t-89 19.5h-178q-110 0 -144.5 -26t-34.5 -117v-101q0 -83 38.5 -110t140.5 -27h129q98 0 135 19t37 81v8h225q2 -38 2 -53q0 -135 -73 -188q-39 -29 -101.5 -39t-167.5 -10h-248q-99 0 -157 10t-102 44q-84 66 -84 213v198q0 160 76.5 220
t266.5 60h248q107 0 168 -9t98 -38q67 -51 67 -183q0 -27 -1 -41h-223zM468 0h63v-53h82q32 0 45 -16.5t13 -56.5v-26q0 -40 -13 -56.5t-46 -16.5h-213v67h163q19 0 19 20t-21 20h-66q-16 0 -21 8.5t-5 28.5v81z" />
    <glyph glyph-name="Egrave" unicode="&#xc8;" horiz-adv-x="930" 
d="M867 550h-572v-110h539v-153h-539v-111h581v-176h-803v727h794v-177zM577 789h-94l-231 139h194z" />
    <glyph glyph-name="Eacute" unicode="&#xc9;" horiz-adv-x="930" 
d="M867 550h-572v-110h539v-153h-539v-111h581v-176h-803v727h794v-177zM365 789l131 139h194l-231 -139h-94z" />
    <glyph glyph-name="Ecircumflex" unicode="&#xca;" horiz-adv-x="930" 
d="M867 550h-572v-110h539v-153h-539v-111h581v-176h-803v727h794v-177zM262 789l131 139h156l131 -139h-94l-115 73l-115 -73h-94z" />
    <glyph glyph-name="Edieresis" unicode="&#xcb;" horiz-adv-x="930" 
d="M867 550h-572v-110h539v-153h-539v-111h581v-176h-803v727h794v-177zM274 794v128h160v-128h-160zM508 794v128h160v-128h-160z" />
    <glyph glyph-name="Igrave" unicode="&#xcc;" horiz-adv-x="388" 
d="M305 0h-222v727h222v-727zM300 789h-94l-231 139h194z" />
    <glyph glyph-name="Iacute" unicode="&#xcd;" horiz-adv-x="388" 
d="M305 0h-222v727h222v-727zM88 789l131 139h194l-231 -139h-94z" />
    <glyph glyph-name="Icircumflex" unicode="&#xce;" horiz-adv-x="388" 
d="M305 0h-222v727h222v-727zM-15 789l131 139h156l131 -139h-94l-115 73l-115 -73h-94z" />
    <glyph glyph-name="Idieresis" unicode="&#xcf;" horiz-adv-x="388" 
d="M305 0h-222v727h222v-727zM-3 794v128h160v-128h-160zM231 794v128h160v-128h-160z" />
    <glyph glyph-name="Eth" unicode="&#xd0;" horiz-adv-x="1107" 
d="M662 548h-347v-126h240v-116h-240v-129h376q70 0 102.5 28.5t32.5 90.5v128q0 64 -40 94t-124 30zM731 727q164 0 241 -57.5t77 -186.5v-250q0 -121 -60.5 -177t-192.5 -56h-703v306h-93v116h93v305h638z" />
    <glyph glyph-name="Ntilde" unicode="&#xd1;" horiz-adv-x="1128" 
d="M1058 0h-325l-436 529v-529h-222v727h329l433 -533v533h221v-727zM453 794h-67q32 114 135 114q19 0 46 -5l84 -16q17 -3 35 -3q45 0 57 37h67q-13 -56 -49.5 -86t-90.5 -30q-21 0 -40 4l-90 18q-9 2 -26 2q-49 0 -61 -35z" />
    <glyph glyph-name="Ograve" unicode="&#xd2;" horiz-adv-x="1100" 
d="M480 173h141q111 0 153 27t42 112v103q0 85 -42 112t-153 27h-142q-113 0 -154 -27t-41 -116v-101q0 -83 42.5 -110t153.5 -27zM420 -9q-112 0 -176 9.5t-107 41.5t-61 83.5t-18 132.5v198q0 87 17.5 141.5t61.5 87.5q41 31 106 41t176 10h261q111 0 176.5 -10t106.5 -41
q78 -60 78 -220v-203q0 -160 -78 -220q-42 -31 -106.5 -41t-176.5 -10h-260zM656 789h-94l-231 139h194z" />
    <glyph glyph-name="Oacute" unicode="&#xd3;" horiz-adv-x="1100" 
d="M480 173h141q111 0 153 27t42 112v103q0 85 -42 112t-153 27h-142q-113 0 -154 -27t-41 -116v-101q0 -83 42.5 -110t153.5 -27zM420 -9q-112 0 -176 9.5t-107 41.5t-61 83.5t-18 132.5v198q0 87 17.5 141.5t61.5 87.5q41 31 106 41t176 10h261q111 0 176.5 -10t106.5 -41
q78 -60 78 -220v-203q0 -160 -78 -220q-42 -31 -106.5 -41t-176.5 -10h-260zM444 789l131 139h194l-231 -139h-94z" />
    <glyph glyph-name="Ocircumflex" unicode="&#xd4;" horiz-adv-x="1100" 
d="M480 173h141q111 0 153 27t42 112v103q0 85 -42 112t-153 27h-142q-113 0 -154 -27t-41 -116v-101q0 -83 42.5 -110t153.5 -27zM420 -9q-112 0 -176 9.5t-107 41.5t-61 83.5t-18 132.5v198q0 87 17.5 141.5t61.5 87.5q41 31 106 41t176 10h261q111 0 176.5 -10t106.5 -41
q78 -60 78 -220v-203q0 -160 -78 -220q-42 -31 -106.5 -41t-176.5 -10h-260zM341 789l131 139h156l131 -139h-94l-115 73l-115 -73h-94z" />
    <glyph glyph-name="Otilde" unicode="&#xd5;" horiz-adv-x="1100" 
d="M480 173h141q111 0 153 27t42 112v103q0 85 -42 112t-153 27h-142q-113 0 -154 -27t-41 -116v-101q0 -83 42.5 -110t153.5 -27zM420 -9q-112 0 -176 9.5t-107 41.5t-61 83.5t-18 132.5v198q0 87 17.5 141.5t61.5 87.5q41 31 106 41t176 10h261q111 0 176.5 -10t106.5 -41
q78 -60 78 -220v-203q0 -160 -78 -220q-42 -31 -106.5 -41t-176.5 -10h-260zM405 794h-67q32 114 135 114q19 0 46 -5l84 -16q17 -3 35 -3q45 0 57 37h67q-13 -56 -49.5 -86t-90.5 -30q-21 0 -40 4l-90 18q-9 2 -26 2q-49 0 -61 -35z" />
    <glyph glyph-name="Odieresis" unicode="&#xd6;" horiz-adv-x="1100" 
d="M480 173h141q111 0 153 27t42 112v103q0 85 -42 112t-153 27h-142q-113 0 -154 -27t-41 -116v-101q0 -83 42.5 -110t153.5 -27zM420 -9q-112 0 -176 9.5t-107 41.5t-61 83.5t-18 132.5v198q0 87 17.5 141.5t61.5 87.5q41 31 106 41t176 10h261q111 0 176.5 -10t106.5 -41
q78 -60 78 -220v-203q0 -160 -78 -220q-42 -31 -106.5 -41t-176.5 -10h-260zM353 794v128h160v-128h-160zM587 794v128h160v-128h-160z" />
    <glyph glyph-name="multiply" unicode="&#xd7;" horiz-adv-x="833" 
d="M210 593l215 -215l215 215l79 -79l-215 -216l215 -215l-79 -79l-215 215l-215 -215l-79 79l215 215l-215 216z" />
    <glyph glyph-name="Oslash" unicode="&#xd8;" horiz-adv-x="1100" 
d="M694 557q-17 2 -65 2h-145q-116 0 -159 -28.5t-43 -119.5v-104q0 -37 6 -61zM367 176q29 -8 91 -8h168q114 0 157 27.5t43 115.5v106q0 70 -23 96zM424 -9q-187 0 -250 33l-90 -71l-61 88l70 55q-31 77 -31 162v197q0 87 17.5 141.5t61.5 87.5q41 31 106 41.5t176 10.5
h261q146 0 218 -20l91 73l61 -82l-61 -47q53 -63 53 -196v-202q0 -159 -79 -220q-42 -31 -106.5 -41t-176.5 -10h-260z" />
    <glyph glyph-name="Ugrave" unicode="&#xd9;" horiz-adv-x="1050" 
d="M73 727h222v-431q0 -78 36 -101t143 -23h126q89 0 123 24.5t34 99.5v431h222v-500q0 -132 -71.5 -184t-236.5 -52h-248q-196 0 -273 50.5t-77 185.5v500zM631 789h-94l-231 139h194z" />
    <glyph glyph-name="Uacute" unicode="&#xda;" horiz-adv-x="1050" 
d="M73 727h222v-431q0 -78 36 -101t143 -23h126q89 0 123 24.5t34 99.5v431h222v-500q0 -132 -71.5 -184t-236.5 -52h-248q-196 0 -273 50.5t-77 185.5v500zM419 789l131 139h194l-231 -139h-94z" />
    <glyph glyph-name="Ucircumflex" unicode="&#xdb;" horiz-adv-x="1050" 
d="M73 727h222v-431q0 -78 36 -101t143 -23h126q89 0 123 24.5t34 99.5v431h222v-500q0 -132 -71.5 -184t-236.5 -52h-248q-196 0 -273 50.5t-77 185.5v500zM316 789l131 139h156l131 -139h-94l-115 73l-115 -73h-94z" />
    <glyph glyph-name="Udieresis" unicode="&#xdc;" horiz-adv-x="1050" 
d="M73 727h222v-431q0 -78 36 -101t143 -23h126q89 0 123 24.5t34 99.5v431h222v-500q0 -132 -71.5 -184t-236.5 -52h-248q-196 0 -273 50.5t-77 185.5v500zM328 794v128h160v-128h-160zM562 794v128h160v-128h-160z" />
    <glyph glyph-name="Yacute" unicode="&#xdd;" horiz-adv-x="1027" 
d="M620 0h-222v261l-401 466h273l239 -289l250 289h263l-402 -466v-261zM408 789l131 139h194l-231 -139h-94z" />
    <glyph glyph-name="Thorn" unicode="&#xde;" horiz-adv-x="975" 
d="M634 641q136 0 193 -30t81 -88t24 -155q0 -148 -49 -210.5t-169 -62.5h-415v-95h-223v727h223v-86h335zM626 460h-327v-184h327q44 0 62 21.5t18 72.5q0 47 -18 68.5t-62 21.5z" />
    <glyph glyph-name="germandbls" unicode="&#xdf;" horiz-adv-x="806" 
d="M258 0h-186v515q0 120 61.5 169t199.5 49h159q119 0 172 -44.5t53 -145.5q0 -50 -18 -80.5t-61 -50.5q119 -32 119 -138v-93q0 -105 -57 -147t-184 -42q-72 0 -155 8v145q55 -9 96 -9q55 0 85 19.5t30 51.5v66q0 59 -109 59h-101v126h91q79 0 79 66q0 70 -72 70h-91
q-67 0 -89 -19.5t-22 -88.5v-486z" />
    <glyph glyph-name="agrave" unicode="&#xe0;" horiz-adv-x="756" 
d="M705 0h-185v62q-55 -69 -240 -69q-139 0 -193 36.5t-54 135.5t57.5 134t202.5 35q165 0 227 -44v55q0 56 -72 56h-151q-54 0 -54 -39h-186v6q0 83 62 118t199 35h181q105 0 155.5 -41.5t50.5 -128.5v-351zM426 222h-113q-49 0 -70.5 -11.5t-21.5 -41.5q0 -29 20.5 -39
t71.5 -10h113q49 0 70.5 11.5t21.5 41.5q0 29 -20.5 39t-71.5 10zM484 574h-94l-231 139h194z" />
    <glyph glyph-name="aacute" unicode="&#xe1;" horiz-adv-x="756" 
d="M705 0h-185v62q-55 -69 -240 -69q-139 0 -193 36.5t-54 135.5t57.5 134t202.5 35q165 0 227 -44v55q0 56 -72 56h-151q-54 0 -54 -39h-186v6q0 83 62 118t199 35h181q105 0 155.5 -41.5t50.5 -128.5v-351zM426 222h-113q-49 0 -70.5 -11.5t-21.5 -41.5q0 -29 20.5 -39
t71.5 -10h113q49 0 70.5 11.5t21.5 41.5q0 29 -20.5 39t-71.5 10zM272 574l131 139h194l-231 -139h-94z" />
    <glyph glyph-name="acircumflex" unicode="&#xe2;" horiz-adv-x="756" 
d="M705 0h-185v62q-55 -69 -240 -69q-139 0 -193 36.5t-54 135.5t57.5 134t202.5 35q165 0 227 -44v55q0 56 -72 56h-151q-54 0 -54 -39h-186v6q0 83 62 118t199 35h181q105 0 155.5 -41.5t50.5 -128.5v-351zM426 222h-113q-49 0 -70.5 -11.5t-21.5 -41.5q0 -29 20.5 -39
t71.5 -10h113q49 0 70.5 11.5t21.5 41.5q0 29 -20.5 39t-71.5 10zM169 574l131 139h156l131 -139h-94l-115 73l-115 -73h-94z" />
    <glyph glyph-name="atilde" unicode="&#xe3;" horiz-adv-x="756" 
d="M705 0h-185v62q-55 -69 -240 -69q-139 0 -193 36.5t-54 135.5t57.5 134t202.5 35q165 0 227 -44v55q0 56 -72 56h-151q-54 0 -54 -39h-186v6q0 83 62 118t199 35h181q105 0 155.5 -41.5t50.5 -128.5v-351zM426 222h-113q-49 0 -70.5 -11.5t-21.5 -41.5q0 -29 20.5 -39
t71.5 -10h113q49 0 70.5 11.5t21.5 41.5q0 29 -20.5 39t-71.5 10zM233 579h-67q32 114 135 114q19 0 46 -5l84 -16q17 -3 35 -3q45 0 57 37h67q-13 -56 -49.5 -86t-90.5 -30q-21 0 -40 4l-90 18q-9 2 -26 2q-49 0 -61 -35z" />
    <glyph glyph-name="adieresis" unicode="&#xe4;" horiz-adv-x="756" 
d="M705 0h-185v62q-55 -69 -240 -69q-139 0 -193 36.5t-54 135.5t57.5 134t202.5 35q165 0 227 -44v55q0 56 -72 56h-151q-54 0 -54 -39h-186v6q0 83 62 118t199 35h181q105 0 155.5 -41.5t50.5 -128.5v-351zM426 222h-113q-49 0 -70.5 -11.5t-21.5 -41.5q0 -29 20.5 -39
t71.5 -10h113q49 0 70.5 11.5t21.5 41.5q0 29 -20.5 39t-71.5 10zM181 579v128h160v-128h-160zM415 579v128h160v-128h-160z" />
    <glyph glyph-name="aring" unicode="&#xe5;" horiz-adv-x="756" 
d="M705 0h-185v62q-55 -69 -240 -69q-139 0 -193 36.5t-54 135.5t57.5 134t202.5 35q165 0 227 -44v55q0 56 -72 56h-151q-54 0 -54 -39h-186v6q0 83 62 118t199 35h181q105 0 155.5 -41.5t50.5 -128.5v-351zM426 222h-113q-49 0 -70.5 -11.5t-21.5 -41.5q0 -29 20.5 -39
t71.5 -10h113q49 0 70.5 11.5t21.5 41.5q0 29 -20.5 39t-71.5 10zM454 655q0 52 -65 52t-65 -52t65 -52t65 52zM548 655q0 -47 -40.5 -72t-118.5 -25q-77 0 -118 25t-41 72t41 72t118 25q78 0 118.5 -25t40.5 -72z" />
    <glyph glyph-name="ae" unicode="&#xe6;" horiz-adv-x="1196" 
d="M701 326h285v2q0 37 -24.5 52t-80.5 15h-75q-56 0 -80.5 -15t-24.5 -52v-2zM610 61q-32 -47 -93.5 -58.5t-195.5 -11.5q-137 0 -197 19q-81 26 -81 155q0 99 55.5 133.5t196.5 34.5q158 0 228 -45v57q0 26 -19.5 41t-54.5 15h-150q-52 0 -53 -39h-180v6q0 83 60 118
t193 35h126q126 0 169 -78q34 77 173 77h157q106 0 161.5 -50.5t55.5 -147.5v-110h-460q0 -3 -0.5 -7.5t-0.5 -6.5q0 -45 25.5 -64.5t82.5 -19.5h77q51 0 72.5 10.5t27.5 46.5h176v-6q0 -93 -51 -132.5t-166 -39.5h-156q-131 0 -178 68zM436 222h-113q-49 0 -70.5 -12
t-21.5 -42q0 -29 20.5 -39t71.5 -10h113q49 0 70.5 12t21.5 42q0 29 -20.5 39t-71.5 10z" />
    <glyph glyph-name="ccedilla" unicode="&#xe7;" horiz-adv-x="780" 
d="M299 -7q-130 0 -188 43.5t-58 145.5v140q0 110 54 154.5t192 44.5h175q127 0 187 -42t60 -134q0 -19 -3 -42h-175v3q0 41 -24 58.5t-78 17.5h-91q-63 0 -87 -20t-24 -74v-66q0 -49 25.5 -69.5t85.5 -20.5h81q65 0 89 16t24 68h184q1 -11 1 -32q0 -105 -58.5 -148
t-193.5 -43h-178zM327 0h63v-53h82q32 0 45 -16.5t13 -56.5v-26q0 -40 -13 -56.5t-46 -16.5h-213v67h163q19 0 19 20t-21 20h-66q-16 0 -21 8.5t-5 28.5v81z" />
    <glyph glyph-name="egrave" unicode="&#xe8;" horiz-adv-x="756" 
d="M238 325h285v2q0 37 -24 52t-80 15h-76q-56 0 -80.5 -15t-24.5 -52v-2zM527 171h174v-8q0 -92 -56 -131t-181 -39h-172q-117 0 -178 49t-61 140v140q0 96 61.5 147.5t176.5 51.5h173q116 0 177 -51t61 -148v-110h-464q0 -3 -0.5 -7.5t-0.5 -6.5q0 -45 26 -64t84 -19h78
q53 0 74 9.5t28 46.5zM487 574h-94l-231 139h194z" />
    <glyph glyph-name="eacute" unicode="&#xe9;" horiz-adv-x="756" 
d="M238 325h285v2q0 37 -24 52t-80 15h-76q-56 0 -80.5 -15t-24.5 -52v-2zM527 171h174v-8q0 -92 -56 -131t-181 -39h-172q-117 0 -178 49t-61 140v140q0 96 61.5 147.5t176.5 51.5h173q116 0 177 -51t61 -148v-110h-464q0 -3 -0.5 -7.5t-0.5 -6.5q0 -45 26 -64t84 -19h78
q53 0 74 9.5t28 46.5zM275 574l131 139h194l-231 -139h-94z" />
    <glyph glyph-name="ecircumflex" unicode="&#xea;" horiz-adv-x="756" 
d="M238 325h285v2q0 37 -24 52t-80 15h-76q-56 0 -80.5 -15t-24.5 -52v-2zM527 171h174v-8q0 -92 -56 -131t-181 -39h-172q-117 0 -178 49t-61 140v140q0 96 61.5 147.5t176.5 51.5h173q116 0 177 -51t61 -148v-110h-464q0 -3 -0.5 -7.5t-0.5 -6.5q0 -45 26 -64t84 -19h78
q53 0 74 9.5t28 46.5zM172 574l131 139h156l131 -139h-94l-115 73l-115 -73h-94z" />
    <glyph glyph-name="edieresis" unicode="&#xeb;" horiz-adv-x="756" 
d="M238 325h285v2q0 37 -24 52t-80 15h-76q-56 0 -80.5 -15t-24.5 -52v-2zM527 171h174v-8q0 -92 -56 -131t-181 -39h-172q-117 0 -178 49t-61 140v140q0 96 61.5 147.5t176.5 51.5h173q116 0 177 -51t61 -148v-110h-464q0 -3 -0.5 -7.5t-0.5 -6.5q0 -45 26 -64t84 -19h78
q53 0 74 9.5t28 46.5zM184 579v128h160v-128h-160zM418 579v128h160v-128h-160z" />
    <glyph glyph-name="igrave" unicode="&#xec;" horiz-adv-x="340" 
d="M263 0h-185v514h185v-514zM276 574h-94l-231 139h194z" />
    <glyph glyph-name="iacute" unicode="&#xed;" horiz-adv-x="340" 
d="M263 0h-185v514h185v-514zM64 574l131 139h194l-231 -139h-94z" />
    <glyph glyph-name="icircumflex" unicode="&#xee;" horiz-adv-x="340" 
d="M263 0h-185v514h185v-514zM-39 574l131 139h156l131 -139h-94l-115 73l-115 -73h-94z" />
    <glyph glyph-name="idieresis" unicode="&#xef;" horiz-adv-x="340" 
d="M263 0h-185v514h185v-514zM-27 579v128h160v-128h-160zM207 579v128h160v-128h-160z" />
    <glyph glyph-name="eth" unicode="&#xf0;" horiz-adv-x="804" 
d="M310 -7q-136 0 -196.5 41t-60.5 140v135q0 105 57 148t199 43h80q74 0 132 -43l-121 125l-226 -32l-12 86l165 22l-67 70h200l43 -44l180 26l13 -88l-115 -16l79 -76q51 -49 71 -97t20 -130v-125q0 -102 -59.5 -143.5t-196.5 -41.5h-185zM359 133h87q64 0 92 18t28 65v62
q0 46 -28 65t-92 19h-87q-68 0 -94.5 -18t-26.5 -68v-61q0 -46 28 -64t93 -18z" />
    <glyph glyph-name="ntilde" unicode="&#xf1;" horiz-adv-x="806" 
d="M257 0h-185v511h185v-79q34 52 86.5 69.5t144.5 17.5q251 0 251 -187v-332h-185v259q0 65 -28.5 88t-119.5 23q-81 0 -115 -28t-34 -94v-248zM268 579h-67q32 114 135 114q19 0 46 -5l84 -16q17 -3 35 -3q45 0 57 37h67q-13 -56 -49.5 -86t-90.5 -30q-21 0 -40 4l-90 18
q-9 2 -26 2q-49 0 -61 -35z" />
    <glyph glyph-name="ograve" unicode="&#xf2;" horiz-adv-x="804" 
d="M310 -7q-135 0 -196 43t-61 146v140q0 109 57 154t199 45h186q136 0 196 -45t60 -148v-143q0 -106 -59.5 -149t-196.5 -43h-185zM359 132h87q64 0 92 20t28 71v68q0 50 -28 70.5t-92 20.5h-87q-68 0 -94.5 -20t-26.5 -74v-66q0 -50 28 -70t93 -20zM508 574h-94l-231 139
h194z" />
    <glyph glyph-name="oacute" unicode="&#xf3;" horiz-adv-x="804" 
d="M310 -7q-135 0 -196 43t-61 146v140q0 109 57 154t199 45h186q136 0 196 -45t60 -148v-143q0 -106 -59.5 -149t-196.5 -43h-185zM359 132h87q64 0 92 20t28 71v68q0 50 -28 70.5t-92 20.5h-87q-68 0 -94.5 -20t-26.5 -74v-66q0 -50 28 -70t93 -20zM296 574l131 139h194
l-231 -139h-94z" />
    <glyph glyph-name="ocircumflex" unicode="&#xf4;" horiz-adv-x="804" 
d="M310 -7q-135 0 -196 43t-61 146v140q0 109 57 154t199 45h186q136 0 196 -45t60 -148v-143q0 -106 -59.5 -149t-196.5 -43h-185zM359 132h87q64 0 92 20t28 71v68q0 50 -28 70.5t-92 20.5h-87q-68 0 -94.5 -20t-26.5 -74v-66q0 -50 28 -70t93 -20zM193 574l131 139h156
l131 -139h-94l-115 73l-115 -73h-94z" />
    <glyph glyph-name="otilde" unicode="&#xf5;" horiz-adv-x="804" 
d="M310 -7q-135 0 -196 43t-61 146v140q0 109 57 154t199 45h186q136 0 196 -45t60 -148v-143q0 -106 -59.5 -149t-196.5 -43h-185zM359 132h87q64 0 92 20t28 71v68q0 50 -28 70.5t-92 20.5h-87q-68 0 -94.5 -20t-26.5 -74v-66q0 -50 28 -70t93 -20zM257 579h-67
q32 114 135 114q19 0 46 -5l84 -16q17 -3 35 -3q45 0 57 37h67q-13 -56 -49.5 -86t-90.5 -30q-21 0 -40 4l-90 18q-9 2 -26 2q-49 0 -61 -35z" />
    <glyph glyph-name="odieresis" unicode="&#xf6;" horiz-adv-x="804" 
d="M310 -7q-135 0 -196 43t-61 146v140q0 109 57 154t199 45h186q136 0 196 -45t60 -148v-143q0 -106 -59.5 -149t-196.5 -43h-185zM359 132h87q64 0 92 20t28 71v68q0 50 -28 70.5t-92 20.5h-87q-68 0 -94.5 -20t-26.5 -74v-66q0 -50 28 -70t93 -20zM205 579v128h160v-128
h-160zM439 579v128h160v-128h-160z" />
    <glyph glyph-name="divide" unicode="&#xf7;" horiz-adv-x="833" 
d="M417 577q33 0 56.5 -23.5t23.5 -57.5q0 -33 -23.5 -56.5t-57.5 -23.5t-57 23.5t-23 56.5q0 34 24 57.5t57 23.5zM124 355h585v-113h-585v113zM417 181q33 0 56.5 -23.5t23.5 -57.5q0 -33 -23 -56.5t-57 -23.5q-33 0 -57 23.5t-24 56.5q0 34 24 57.5t57 23.5z" />
    <glyph glyph-name="oslash" unicode="&#xf8;" horiz-adv-x="804" 
d="M313 -7q-128 0 -185 34l-75 -52l-52 75l68 48q-13 46 -13 83v141q0 108 57.5 153t199.5 45h185q108 0 157 -23l77 52l50 -74l-53 -36q26 -35 26 -111v-143q0 -106 -60 -149t-197 -43h-185zM237 212l250 171q-32 2 -34 2h-91q-70 0 -97.5 -21t-27.5 -77v-75zM288 137
q27 -9 72 -9h90q67 0 96 20.5t29 73.5v71q0 17 -5 37z" />
    <glyph glyph-name="ugrave" unicode="&#xf9;" horiz-adv-x="806" 
d="M549 514h185v-514h-185v79q-34 -52 -86 -69t-145 -17q-129 0 -190.5 46.5t-61.5 145.5v329h185v-262q0 -62 27 -86t113 -24q88 0 123 26t35 95v251zM504 574h-94l-231 139h194z" />
    <glyph glyph-name="uacute" unicode="&#xfa;" horiz-adv-x="806" 
d="M549 514h185v-514h-185v79q-34 -52 -86 -69t-145 -17q-129 0 -190.5 46.5t-61.5 145.5v329h185v-262q0 -62 27 -86t113 -24q88 0 123 26t35 95v251zM292 574l131 139h194l-231 -139h-94z" />
    <glyph glyph-name="ucircumflex" unicode="&#xfb;" horiz-adv-x="806" 
d="M549 514h185v-514h-185v79q-34 -52 -86 -69t-145 -17q-129 0 -190.5 46.5t-61.5 145.5v329h185v-262q0 -62 27 -86t113 -24q88 0 123 26t35 95v251zM189 574l131 139h156l131 -139h-94l-115 73l-115 -73h-94z" />
    <glyph glyph-name="udieresis" unicode="&#xfc;" horiz-adv-x="806" 
d="M549 514h185v-514h-185v79q-34 -52 -86 -69t-145 -17q-129 0 -190.5 46.5t-61.5 145.5v329h185v-262q0 -62 27 -86t113 -24q88 0 123 26t35 95v251zM201 579v128h160v-128h-160zM435 579v128h160v-128h-160z" />
    <glyph glyph-name="yacute" unicode="&#xfd;" horiz-adv-x="709" 
d="M305 25h-69l-225 489h204l143 -334l148 334h202l-257 -554q-38 -83 -85 -111q-41 -23 -120 -23q-43 0 -84 4v122q22 -3 40 -3q86 0 103 76zM249 574l131 139h194l-231 -139h-94z" />
    <glyph glyph-name="thorn" unicode="&#xfe;" horiz-adv-x="810" 
d="M72 727h185v-307q6 57 59.5 79t169.5 22q147 0 209 -38.5t62 -133.5v-170q0 -94 -64 -136t-204 -42q-111 0 -163.5 19t-68.5 73v-267h-185v901zM455 379h-84q-63 0 -90 -19.5t-27 -66.5v-62q0 -51 25.5 -70.5t91.5 -19.5h84q62 0 89.5 20t27.5 67v64q0 48 -27.5 67.5
t-89.5 19.5z" />
    <glyph glyph-name="ydieresis" unicode="&#xff;" horiz-adv-x="709" 
d="M305 25h-69l-225 489h204l143 -334l148 334h202l-257 -554q-38 -83 -85 -111q-41 -23 -120 -23q-43 0 -84 4v122q22 -3 40 -3q86 0 103 76zM158 579v128h160v-128h-160zM392 579v128h160v-128h-160z" />
    <glyph glyph-name="dotlessi" unicode="&#x131;" horiz-adv-x="340" 
d="M263 0h-185v514h185v-514z" />
    <glyph glyph-name="Lslash" unicode="&#x141;" horiz-adv-x="815" 
d="M318 484l253 152v-133l-253 -153v-174h484v-176h-706v259l-96 -58v133l96 58v335h222v-243z" />
    <glyph glyph-name="lslash" unicode="&#x142;" horiz-adv-x="350" 
d="M82 0v283l-93 -58v104l93 58v340h185v-266l97 60v-104l-97 -60v-357h-185z" />
    <glyph glyph-name="OE" unicode="&#x152;" horiz-adv-x="1315" 
d="M691 81q-31 -54 -70.5 -72t-105.5 -18h-141q-104 0 -164.5 10t-100.5 41q-41 31 -58 82t-17 132v198q0 87 16.5 141.5t57.5 86.5q39 31 100 41t165 10h142q69 0 109.5 -21.5t66.5 -75.5v90h594v-176h-409v-110h396v-153h-396v-111h409v-176h-594v81zM517 552h-118
q-91 0 -123 -27.5t-32 -115.5v-101q0 -82 33.5 -109t121.5 -27h118q89 0 121.5 27.5t32.5 111.5v103q0 84 -32.5 111t-121.5 27z" />
    <glyph glyph-name="oe" unicode="&#x153;" horiz-adv-x="1245" 
d="M355 144h87q64 0 92 18.5t28 66.5v64q0 47 -28 66t-92 19h-87q-68 0 -94.5 -19t-26.5 -69v-63q0 -46 28 -64.5t93 -18.5zM745 329h285v2q0 37 -24 52t-80 15h-76q-56 0 -80.5 -15t-24.5 -52v-2zM651 73q-26 -49 -71.5 -64.5t-131.5 -15.5h-167q-123 0 -177 42.5
t-54 145.5v140q0 108 51.5 153t179.5 45h167q83 0 130 -12.5t73 -48.5q55 62 177 62h161q108 0 164.5 -50.5t56.5 -147.5v-110h-462q0 -3 -0.5 -7.5t-0.5 -6.5q0 -45 25.5 -64.5t83.5 -19.5h77q51 0 72.5 10.5t27.5 46.5h176v-8q0 -91 -52 -130.5t-168 -39.5h-160
q-81 0 -123 18t-55 62z" />
    <glyph glyph-name="Scaron" unicode="&#x160;" horiz-adv-x="1024" 
d="M65 242h219v-13q0 -43 22 -56.5t82 -13.5h279q40 0 58 13.5t18 46.5q0 37 -24 49t-83 14l-349 11q-128 4 -175.5 48.5t-47.5 168.5q0 119 51 170q37 35 93 45.5t157 10.5h339q125 0 181 -45.5t56 -149.5q0 -12 -2 -40h-214v3q0 72 -73 72h-256q-57 0 -81 -10.5t-24 -46.5
q0 -33 20 -45.5t67 -14.5l365 -9q125 -3 176 -56t51 -180q0 -72 -17.5 -115t-64.5 -73q-54 -35 -225 -35h-296q-174 0 -239.5 38.5t-65.5 154.5q0 13 3 58zM303 927h94l115 -72l115 72h94l-131 -138h-156z" />
    <glyph glyph-name="scaron" unicode="&#x161;" horiz-adv-x="778" 
d="M45 163h196v-2q0 -46 101 -46h135q40 0 57 9t17 31q0 39 -76 40l-183 3q-131 2 -188 35t-57 122q0 91 59 128.5t192 37.5h210q101 0 149 -37t49 -115h-185q-13 30 -92 30h-129q-35 0 -51 -7t-16 -26q0 -20 19 -26.5t68 -7.5l226 -3q99 -2 145 -40.5t46 -122.5
q0 -98 -53.5 -135.5t-177.5 -37.5h-188q-150 0 -211 34t-62 136zM180 712h94l115 -72l115 72h94l-131 -138h-156z" />
    <glyph glyph-name="Ydieresis" unicode="&#x178;" horiz-adv-x="1027" 
d="M620 0h-222v261l-401 466h273l239 -289l250 289h263l-402 -466v-261zM317 794v128h160v-128h-160zM551 794v128h160v-128h-160z" />
    <glyph glyph-name="Zcaron" unicode="&#x17d;" horiz-adv-x="928" 
d="M893 0h-855v178l518 373h-499v176h824v-176l-515 -373h527v-178zM255 927h94l115 -72l115 72h94l-131 -138h-156z" />
    <glyph glyph-name="zcaron" unicode="&#x17e;" horiz-adv-x="633" 
d="M608 0h-581v130l311 243h-293v141h553v-142l-294 -232h304v-140zM108 712h94l115 -72l115 72h94l-131 -138h-156z" />
    <glyph glyph-name="florin" unicode="&#x192;" horiz-adv-x="977" 
d="M77 -159v168q77 -21 129 -21q66 0 97.5 24.5t45.5 82.5l43 177h-204v151h241l29 121q25 104 92 148.5t191 44.5q69 0 175 -16v-165q-98 19 -152 19q-102 0 -123 -91l-14 -61h237v-151h-270l-46 -210q-24 -113 -107.5 -175.5t-212.5 -62.5q-54 0 -151 17z" />
    <glyph glyph-name="circumflex" unicode="&#x2c6;" 
d="M41 574l131 139h156l131 -139h-94l-115 73l-115 -73h-94z" />
    <glyph glyph-name="caron" unicode="&#x2c7;" 
d="M41 712h94l115 -72l115 72h94l-131 -138h-156z" />
    <glyph glyph-name="breve" unicode="&#x2d8;" 
d="M42 713h87q14 -60 121 -60q110 0 120 60h87q-10 -72 -60.5 -105.5t-146.5 -33.5t-147 33.5t-61 105.5z" />
    <glyph glyph-name="dotaccent" unicode="&#x2d9;" 
d="M167 576v133h166v-133h-166z" />
    <glyph glyph-name="ring" unicode="&#x2da;" 
d="M420 670q0 -50 -43.5 -76.5t-126.5 -26.5q-82 0 -125.5 27t-43.5 76t43.5 76t125.5 27q83 0 126.5 -26.5t43.5 -76.5zM319 670q0 55 -69 55q-68 0 -68 -55q0 -53 68 -53q69 0 69 53z" />
    <glyph glyph-name="ogonek" unicode="&#x2db;" 
d="M334 0l-99 -91q-13 -12 -13 -25q0 -16 20 -16h151v-86h-227q-53 0 -53 56v21q0 41 35 66l107 75h79z" />
    <glyph glyph-name="tilde" unicode="&#x2dc;" 
d="M105 579h-67q32 114 135 114q19 0 46 -5l84 -16q17 -3 35 -3q45 0 57 37h67q-13 -56 -49.5 -86t-90.5 -30q-21 0 -40 4l-90 18q-9 2 -26 2q-49 0 -61 -35z" />
    <glyph glyph-name="hungarumlaut" unicode="&#x2dd;" 
d="M70 573l86 138h165l-187 -138h-64zM270 573l107 138h174l-209 -138h-72z" />
    <glyph glyph-name="mu" unicode="&#x3bc;" horiz-adv-x="642" 
d="M94 532h175l-39 -258q-6 -41 -6 -70q0 -83 70 -83q44 0 68.5 34t35.5 107l43 270h174l-85 -532h-157l9 61q-37 -69 -102 -69q-60 0 -90 59l-40 -260h-172z" />
    <glyph glyph-name="endash" unicode="&#x2013;" 
d="M500 200h-500v122h500v-122z" />
    <glyph glyph-name="emdash" unicode="&#x2014;" horiz-adv-x="1000" 
d="M0 200v122h1000v-122h-1000z" />
    <glyph glyph-name="quoteleft" unicode="&#x2018;" horiz-adv-x="488" 
d="M350 530v-193h-211v243q0 83 41 119t135 36q30 0 66 -3v-111h-14q-71 0 -71 -46v-45h54z" />
    <glyph glyph-name="quoteright" unicode="&#x2019;" horiz-adv-x="488" 
d="M139 534v193h211v-243q0 -83 -41.5 -119.5t-136.5 -36.5q-30 0 -65 3v112h15q71 0 71 45v46h-54z" />
    <glyph glyph-name="quotesinglbase" unicode="&#x201a;" horiz-adv-x="488" 
d="M139 12v193h211v-243q0 -83 -41.5 -119.5t-136.5 -36.5q-30 0 -65 3v112h15q71 0 71 46v45h-54z" />
    <glyph glyph-name="quotedblleft" unicode="&#x201c;" horiz-adv-x="784" 
d="M644 530v-193h-210v242q0 83 41.5 119.5t135.5 36.5q31 0 65 -3v-112h-15q-71 0 -71 -45v-45h54zM349 530v-193h-210v242q0 83 41.5 119.5t135.5 36.5q30 0 65 -3v-112h-15q-71 0 -71 -45v-45h54z" />
    <glyph glyph-name="quotedblright" unicode="&#x201d;" horiz-adv-x="784" 
d="M139 534v193h210v-243q0 -83 -41.5 -119.5t-135.5 -36.5q-30 0 -65 3v112h15q71 0 71 45v46h-54zM434 534v193h210v-243q0 -83 -41.5 -119.5t-135.5 -36.5q-30 0 -65 3v112h15q70 0 70 45v46h-53z" />
    <glyph glyph-name="quotedblbase" unicode="&#x201e;" horiz-adv-x="784" 
d="M139 12v193h210v-243q0 -83 -41.5 -119.5t-135.5 -36.5q-30 0 -65 3v112h15q71 0 71 46v45h-54zM434 12v193h210v-243q0 -83 -41.5 -119.5t-135.5 -36.5q-30 0 -65 3v112h14q71 0 71 46v45h-53z" />
    <glyph glyph-name="dagger" unicode="&#x2020;" horiz-adv-x="729" 
d="M447 0h-163v402h-218v146h218v179h163v-179h216v-146h-216v-402z" />
    <glyph glyph-name="daggerdbl" unicode="&#x2021;" horiz-adv-x="729" 
d="M447 0h-163v135h-192v146h192v175h-192v147h192v124h163v-124h190v-147h-190v-175h190v-146h-190v-135z" />
    <glyph glyph-name="bullet" unicode="&#x2022;" horiz-adv-x="590" 
d="M150 372q0 60 42.5 102t102.5 42q59 0 101.5 -42t42.5 -102q0 -59 -42.5 -102t-102.5 -43t-102 42.5t-42 102.5z" />
    <glyph glyph-name="ellipsis" unicode="&#x2026;" horiz-adv-x="1000" 
d="M270 0h-206v206h206v-206zM603 0h-206v206h206v-206zM937 0h-206v206h206v-206z" />
    <glyph glyph-name="perthousand" unicode="&#x2030;" horiz-adv-x="1832" 
d="M1084 438q73 0 105.5 -38t32.5 -122v-131q0 -80 -33.5 -118t-106.5 -38h-193q-77 0 -111 35t-34 121v131q0 83 32.5 121.5t107.5 38.5h200zM1019 329h-74q-44 0 -60 -19t-16 -66v-63q0 -48 17 -64t59 -16h74q43 0 60.5 17t17.5 63v63q0 49 -17.5 67t-60.5 18zM570 -9h-94
l243 745h93zM1630 438q72 0 104.5 -38t32.5 -122v-131q0 -80 -33.5 -118t-106.5 -38h-193q-77 0 -111 35t-34 121v131q0 83 32.5 121.5t107.5 38.5h201zM1565 329h-75q-44 0 -60 -19t-16 -66v-63q0 -48 17 -64t59 -16h75q43 0 60 17t17 63v63q0 50 -17 67.5t-60 17.5z
M405 736q73 0 105.5 -38t32.5 -122v-132q0 -80 -33.5 -118t-106.5 -38h-193q-77 0 -111 35t-34 121v132q0 83 32.5 121.5t107.5 38.5h200zM340 627h-74q-44 0 -60 -19t-16 -66v-63q0 -48 17 -64.5t59 -16.5h74q43 0 60.5 17.5t17.5 63.5v63q0 49 -17.5 67t-60.5 18z" />
    <glyph glyph-name="guilsinglleft" unicode="&#x2039;" horiz-adv-x="346" 
d="M306 416l-115 -157l115 -153h-152l-114 153l114 157h152z" />
    <glyph glyph-name="guilsinglright" unicode="&#x203a;" horiz-adv-x="346" 
d="M39 416h152l115 -157l-115 -153h-152l115 153z" />
    <glyph glyph-name="fraction" unicode="&#x2044;" horiz-adv-x="167" 
d="M238 736h95l-405 -745h-95z" />
    <glyph glyph-name="trademark" unicode="&#x2122;" horiz-adv-x="833" 
d="M92 715h245v-62h-80v-207h-85v207h-80v62zM389 715h109l55 -148l56 148h108v-269h-76v190l-71 -190h-32l-73 190v-190h-76v269z" />
    <glyph glyph-name="minus" unicode="&#x2212;" horiz-adv-x="833" 
d="M124 356h585v-115h-585v115z" />
    <glyph glyph-name="fi" unicode="&#xfb01;" horiz-adv-x="764" 
d="M697 0h-185v514h185v-514zM512 576v151h185v-151h-185zM293 0h-186v374h-90v140h90v17q0 108 51.5 151t176.5 43h115v-128q-34 2 -46 2q-59 0 -85.5 -16t-26.5 -54q0 -10 1 -15h157v-140h-157v-374z" />
    <glyph glyph-name="fl" unicode="&#xfb02;" horiz-adv-x="764" 
d="M697 0h-185v727h185v-727zM293 0h-186v374h-90v140h90v17q0 108 51.5 151t176.5 43h115v-128q-34 2 -46 2q-59 0 -85.5 -16t-26.5 -54q0 -10 1 -15h157v-140h-157v-374z" />
  </font>
</defs>
</svg>
